# Blender v2.77 (sub 0) OBJ File: 'door.blend'
# www.blender.org
mtllib door.mtl
o Tableau1_Cube.012
v 5.438216 9.730980 -0.779747
v 5.438216 14.350981 -0.779747
v 5.922215 9.730980 -0.779747
v 5.922215 14.350981 -0.779747
v 5.438216 9.730980 0.540253
v 5.438216 14.350981 0.540253
v 5.922215 9.730980 0.540253
v 5.922215 14.350981 0.540253
v 13.545217 9.730980 -0.779747
v 13.545217 14.350981 -0.779747
v 14.029217 9.730980 -0.779747
v 14.029217 14.350981 -0.779747
v 13.545217 9.730980 0.540253
v 13.545217 14.350981 0.540253
v 14.029217 9.730980 0.540253
v 14.029217 14.350981 0.540253
v 5.438216 14.834980 -0.779747
v 14.029217 14.834980 -0.779747
v 5.438216 14.350981 -0.779747
v 14.029217 14.350981 -0.779747
v 5.438216 14.834980 0.540253
v 14.029217 14.834980 0.540253
v 5.438216 14.350981 0.540253
v 14.029217 14.350981 0.540253
v 5.438216 9.730980 -0.779747
v 14.029217 9.730980 -0.779747
v 5.438216 9.246980 -0.779747
v 14.029217 9.246981 -0.779747
v 5.438216 9.730980 0.540253
v 14.029217 9.730980 0.540253
v 5.438216 9.246980 0.540253
v 14.029217 9.246981 0.540253
vt 0.6750 0.7364
vt 0.3237 0.7353
vt 0.3224 0.3827
vt 0.6750 0.3827
vt 0.6208 0.8900
vt 0.6188 0.8900
vt 0.6188 0.8800
vt 0.6208 0.8800
vt 0.6245 0.8800
vt 0.6216 0.8800
vt 0.6216 0.8700
vt 0.6245 0.8700
vt 0.6187 0.8900
vt 0.6168 0.8900
vt 0.6168 0.8800
vt 0.6187 0.8800
vt 0.6216 0.8800
vt 0.6188 0.8800
vt 0.6188 0.8700
vt 0.6216 0.8700
vt 0.6168 0.8620
vt 0.6168 0.8600
vt 0.6197 0.8600
vt 0.6197 0.8620
vt 0.6197 0.8620
vt 0.6197 0.8640
vt 0.6168 0.8640
vt 0.6168 0.8620
vt 0.6228 0.8900
vt 0.6208 0.8900
vt 0.6208 0.8800
vt 0.6228 0.8800
vt 0.6187 0.8800
vt 0.6159 0.8800
vt 0.6159 0.8700
vt 0.6187 0.8700
vt 0.6168 0.8700
vt 0.6148 0.8700
vt 0.6148 0.8600
vt 0.6168 0.8600
vt 0.6119 0.8700
vt 0.6119 0.8600
vt 0.6197 0.8681
vt 0.6197 0.8661
vt 0.6225 0.8661
vt 0.6225 0.8681
vt 0.6197 0.8661
vt 0.6197 0.8681
vt 0.6168 0.8681
vt 0.6168 0.8661
vt 0.6159 0.8807
vt 0.6159 0.8826
vt 0.5954 0.8826
vt 0.5954 0.8807
vt 0.6159 0.8700
vt 0.6159 0.8729
vt 0.5954 0.8729
vt 0.5954 0.8700
vt 0.6159 0.8827
vt 0.6159 0.8847
vt 0.5954 0.8847
vt 0.5954 0.8827
vt 0.6159 0.8729
vt 0.6159 0.8757
vt 0.5954 0.8757
vt 0.5954 0.8729
vt 0.6197 0.8620
vt 0.6197 0.8600
vt 0.6225 0.8600
vt 0.6225 0.8620
vt 0.6225 0.8620
vt 0.6225 0.8640
vt 0.6197 0.8640
vt 0.6197 0.8620
vt 0.6159 0.8786
vt 0.6159 0.8806
vt 0.5954 0.8806
vt 0.5954 0.8786
vt 0.6159 0.8847
vt 0.6159 0.8867
vt 0.5954 0.8867
vt 0.5954 0.8847
vt 0.6159 0.8758
vt 0.5954 0.8758
vt 0.6168 0.8660
vt 0.6168 0.8641
vt 0.6197 0.8641
vt 0.6197 0.8660
vt 0.6225 0.8641
vt 0.6225 0.8660
vt 0.6197 0.8660
vt 0.6197 0.8641
vn -0.0000 0.0000 1.0000
vn 0.0000 0.0000 -1.0000
vn 1.0000 0.0000 0.0000
vn -1.0000 0.0000 0.0000
vn 0.0000 -1.0000 0.0000
vn 0.0000 1.0000 0.0000
usemtl None
s off
f 14/1/1 8/2/1 7/3/1 13/4/1
usemtl None_door.jpg
f 2/5/2 4/6/2 3/7/2 1/8/2
f 4/9/3 8/10/3 7/11/3 3/12/3
f 8/13/1 6/14/1 5/15/1 7/16/1
f 6/17/4 2/18/4 1/19/4 5/20/4
f 1/21/5 3/22/5 7/23/5 5/24/5
f 6/25/6 8/26/6 4/27/6 2/28/6
f 10/29/2 12/30/2 11/31/2 9/32/2
f 12/33/3 16/34/3 15/35/3 11/36/3
f 16/37/1 14/38/1 13/39/1 15/40/1
f 14/38/4 10/41/4 9/42/4 13/39/4
f 9/43/5 11/44/5 15/45/5 13/46/5
f 14/47/6 16/48/6 12/49/6 10/50/6
f 18/51/2 20/52/2 19/53/2 17/54/2
f 20/55/5 24/56/5 23/57/5 19/58/5
f 24/59/1 22/60/1 21/61/1 23/62/1
f 22/63/6 18/64/6 17/65/6 21/66/6
f 17/67/4 19/68/4 23/69/4 21/70/4
f 22/71/3 24/72/3 20/73/3 18/74/3
f 26/75/2 28/76/2 27/77/2 25/78/2
f 32/79/1 30/80/1 29/81/1 31/82/1
f 30/83/6 26/75/6 25/78/6 29/84/6
f 25/85/4 27/86/4 31/87/4 29/88/4
f 30/89/3 32/90/3 28/91/3 26/92/3
o Tableau2_Cube.010
v -20.701283 9.730980 15.140753
v -20.701283 14.350981 15.140753
v -20.701283 9.730980 14.656754
v -20.701283 14.350981 14.656754
v -19.381283 9.730980 15.140753
v -19.381283 14.350981 15.140753
v -19.381283 9.730980 14.656754
v -19.381283 14.350981 14.656754
v -20.701283 9.730980 7.033752
v -20.701283 14.350981 7.033752
v -20.701283 9.730980 6.549753
v -20.701283 14.350981 6.549753
v -19.381283 9.730980 7.033752
v -19.381283 14.350981 7.033752
v -19.381283 9.730980 6.549753
v -19.381283 14.350981 6.549753
v -20.701283 14.834980 15.140753
v -20.701283 14.834980 6.549752
v -20.701283 14.350981 15.140753
v -20.701283 14.350981 6.549752
v -19.381283 14.834980 15.140753
v -19.381283 14.834980 6.549752
v -19.381283 14.350981 15.140753
v -19.381283 14.350981 6.549752
v -20.701283 9.730980 15.140753
v -20.701283 9.730980 6.549752
v -20.701283 9.246980 15.140753
v -20.701283 9.246981 6.549752
v -19.381283 9.730980 15.140753
v -19.381283 9.730980 6.549752
v -19.381283 9.246980 15.140753
v -19.381283 9.246981 6.549752
vt 0.6750 0.7364
vt 0.3237 0.7353
vt 0.3224 0.3827
vt 0.6750 0.3827
vt 0.6208 0.8900
vt 0.6188 0.8900
vt 0.6188 0.8800
vt 0.6208 0.8800
vt 0.6245 0.8800
vt 0.6216 0.8800
vt 0.6216 0.8700
vt 0.6245 0.8700
vt 0.6187 0.8900
vt 0.6168 0.8900
vt 0.6168 0.8800
vt 0.6187 0.8800
vt 0.6216 0.8800
vt 0.6188 0.8800
vt 0.6188 0.8700
vt 0.6216 0.8700
vt 0.6168 0.8620
vt 0.6168 0.8600
vt 0.6197 0.8600
vt 0.6197 0.8620
vt 0.6197 0.8620
vt 0.6197 0.8640
vt 0.6168 0.8640
vt 0.6168 0.8620
vt 0.6228 0.8900
vt 0.6208 0.8900
vt 0.6208 0.8800
vt 0.6228 0.8800
vt 0.6187 0.8800
vt 0.6159 0.8800
vt 0.6159 0.8700
vt 0.6187 0.8700
vt 0.6168 0.8700
vt 0.6148 0.8700
vt 0.6148 0.8600
vt 0.6168 0.8600
vt 0.6119 0.8700
vt 0.6119 0.8600
vt 0.6197 0.8681
vt 0.6197 0.8661
vt 0.6225 0.8661
vt 0.6225 0.8681
vt 0.6197 0.8661
vt 0.6197 0.8681
vt 0.6168 0.8681
vt 0.6168 0.8661
vt 0.6159 0.8807
vt 0.6159 0.8826
vt 0.5954 0.8826
vt 0.5954 0.8807
vt 0.6159 0.8700
vt 0.6159 0.8729
vt 0.5954 0.8729
vt 0.5954 0.8700
vt 0.6159 0.8827
vt 0.6159 0.8847
vt 0.5954 0.8847
vt 0.5954 0.8827
vt 0.6159 0.8729
vt 0.6159 0.8757
vt 0.5954 0.8757
vt 0.5954 0.8729
vt 0.6197 0.8620
vt 0.6197 0.8600
vt 0.6225 0.8600
vt 0.6225 0.8620
vt 0.6225 0.8620
vt 0.6225 0.8640
vt 0.6197 0.8640
vt 0.6197 0.8620
vt 0.6159 0.8786
vt 0.6159 0.8806
vt 0.5954 0.8806
vt 0.5954 0.8786
vt 0.6159 0.8847
vt 0.6159 0.8867
vt 0.5954 0.8867
vt 0.5954 0.8847
vt 0.6159 0.8758
vt 0.5954 0.8758
vt 0.6168 0.8660
vt 0.6168 0.8641
vt 0.6197 0.8641
vt 0.6197 0.8660
vt 0.6225 0.8641
vt 0.6225 0.8660
vt 0.6197 0.8660
vt 0.6197 0.8641
vn 1.0000 0.0000 0.0000
vn -1.0000 0.0000 0.0000
vn 0.0000 0.0000 -1.0000
vn 0.0000 0.0000 1.0000
vn 0.0000 -1.0000 0.0000
vn 0.0000 1.0000 0.0000
usemtl None
s off
f 46/93/7 40/94/7 39/95/7 45/96/7
usemtl None_door.jpg
f 34/97/8 36/98/8 35/99/8 33/100/8
f 36/101/9 40/102/9 39/103/9 35/104/9
f 40/105/7 38/106/7 37/107/7 39/108/7
f 38/109/10 34/110/10 33/111/10 37/112/10
f 33/113/11 35/114/11 39/115/11 37/116/11
f 38/117/12 40/118/12 36/119/12 34/120/12
f 42/121/8 44/122/8 43/123/8 41/124/8
f 44/125/9 48/126/9 47/127/9 43/128/9
f 48/129/7 46/130/7 45/131/7 47/132/7
f 46/130/10 42/133/10 41/134/10 45/131/10
f 41/135/11 43/136/11 47/137/11 45/138/11
f 46/139/12 48/140/12 44/141/12 42/142/12
f 50/143/8 52/144/8 51/145/8 49/146/8
f 52/147/11 56/148/11 55/149/11 51/150/11
f 56/151/7 54/152/7 53/153/7 55/154/7
f 54/155/12 50/156/12 49/157/12 53/158/12
f 49/159/10 51/160/10 55/161/10 53/162/10
f 54/163/9 56/164/9 52/165/9 50/166/9
f 58/167/8 60/168/8 59/169/8 57/170/8
f 64/171/7 62/172/7 61/173/7 63/174/7
f 62/175/12 58/167/12 57/170/12 61/176/12
f 57/177/10 59/178/10 63/179/10 61/180/10
f 62/181/9 64/182/9 60/183/9 58/184/9
o Plafond_Cube.009
v -22.000000 22.000000 38.000000
v 22.000000 22.000000 38.000000
v -22.000000 24.000002 38.000000
v 22.000000 24.000000 38.000000
v -22.000002 22.000000 -1.999998
v 21.999998 22.000000 -2.000002
v -22.000002 24.000002 -1.999998
v 21.999998 24.000000 -2.000002
vt 0.0000 0.0000
vt 1.0000 0.0000
vt 1.0000 1.0000
vt 0.0000 1.0000
vt 0.0000 0.0000
vt 1.0000 0.0000
vt 1.0000 1.0000
vt 0.0000 1.0000
vt 0.0000 0.0000
vt 1.0000 0.0000
vt 1.0000 1.0000
vt 0.0000 1.0000
vt 0.0000 0.0000
vt 1.0000 0.0000
vt 1.0000 1.0000
vt 0.0000 1.0000
vt 0.0000 0.0000
vt 1.0000 0.0000
vt 1.0000 1.0000
vt 0.0000 1.0000
vn 0.0000 0.0000 1.0000
vn 0.0000 1.0000 -0.0000
vn -0.0000 0.0000 -1.0000
vn 0.0000 -1.0000 -0.0000
vn -1.0000 0.0000 0.0000
vn 1.0000 0.0000 -0.0000
usemtl None_wall.jpg.001
s off
f 66/185/13 68/186/13 67/187/13 65/188/13
f 68/189/14 72/190/14 71/191/14 67/192/14
f 72/193/15 70/194/15 69/195/15 71/196/15
f 70/197/16 66/198/16 65/199/16 69/200/16
f 65/201/17 67/202/17 71/191/17 69/200/17
f 70/197/18 72/190/18 68/203/18 66/204/18
o Wall2_Cube.008
v -19.799999 0.000000 38.000000
v -19.799999 22.000000 38.000000
v -21.799999 0.000000 38.000000
v -21.799999 22.000000 38.000000
v -19.799999 0.000000 -2.000000
v -19.799999 22.000000 -2.000000
v -21.800001 0.000000 -2.000000
v -21.800001 22.000000 -2.000000
vt 0.0000 0.0000
vt 1.0000 0.0000
vt 1.0000 1.0000
vt 0.0000 1.0000
vt 0.0000 0.0000
vt 1.0000 0.0000
vt 1.0000 1.0000
vt 0.0000 1.0000
vt 0.0000 0.0000
vt 1.0000 0.0000
vt 1.0000 1.0000
vt 0.0000 1.0000
vt 0.0000 0.0000
vt 1.0000 0.0000
vt 1.0000 1.0000
vt 0.0000 1.0000
vt 0.0000 0.0000
vt 1.0000 0.0000
vt 1.0000 1.0000
vt 0.0000 1.0000
vn 0.0000 0.0000 1.0000
vn -1.0000 0.0000 0.0000
vn 0.0000 0.0000 -1.0000
vn 1.0000 0.0000 0.0000
vn 0.0000 -1.0000 0.0000
vn 0.0000 1.0000 0.0000
usemtl None_wall.jpg.001
s off
f 74/205/19 76/206/19 75/207/19 73/208/19
f 76/209/20 80/210/20 79/211/20 75/212/20
f 80/213/21 78/214/21 77/215/21 79/216/21
f 78/217/22 74/218/22 73/219/22 77/220/22
f 73/221/23 75/222/23 79/211/23 77/220/23
f 78/217/24 80/210/24 76/223/24 74/224/24
o Sol_Cube.006
v -20.000000 -2.000000 -2.000000
v -20.000000 -2.000000 38.000000
v -20.000000 0.000001 -2.000000
v -20.000000 0.000000 38.000000
v 20.000000 -2.000000 -2.000000
v 20.000000 -2.000000 38.000000
v 20.000000 0.000001 -2.000000
v 20.000000 0.000000 38.000000
vt -0.9000 -0.9000
vt 1.9000 -0.9000
vt 1.9000 1.9000
vt -0.9000 1.9000
vt -0.9000 -0.9000
vt 1.9000 -0.9000
vt 1.9000 1.9000
vt -0.9000 1.9000
vt -0.9000 -0.9000
vt 1.9000 -0.9000
vt 1.9000 1.9000
vt -0.9000 1.9000
vt -0.9000 -0.9000
vt 1.9000 -0.9000
vt 1.9000 1.9000
vt -0.9000 1.9000
vt -0.9000 -0.9000
vt 1.9000 -0.9000
vt 1.9000 1.9000
vt -0.9000 1.9000
vn -1.0000 0.0000 0.0000
vn 0.0000 1.0000 0.0000
vn 1.0000 0.0000 0.0000
vn 0.0000 -1.0000 -0.0000
vn 0.0000 0.0000 -1.0000
vn 0.0000 0.0000 1.0000
usemtl None_wall.jpg
s off
f 82/225/25 84/226/25 83/227/25 81/228/25
f 84/229/26 88/230/26 87/231/26 83/232/26
f 88/233/27 86/234/27 85/235/27 87/236/27
f 86/237/28 82/238/28 81/239/28 85/240/28
f 81/241/29 83/242/29 87/231/29 85/240/29
f 86/237/30 88/230/30 84/243/30 82/244/30
o Contours_Cube.001
v -8.800000 0.979999 0.960000
v -8.800000 15.580000 0.960000
v -8.800000 0.979999 -0.720000
v -8.800000 15.580000 -0.720000
v -7.600000 0.979999 0.960000
v -7.600000 15.580000 0.960000
v -7.600000 0.979999 -0.720000
v -7.600000 15.580000 -0.720000
v -8.800000 16.740000 0.960000
v -8.800000 16.740000 -0.720000
v -7.600000 16.740000 0.960000
v -7.600000 16.740000 -0.720000
v -0.400000 15.580000 0.960000
v -0.400000 15.580000 -0.720000
v -0.400000 16.740000 0.960000
v -0.400000 16.740000 -0.720000
v 0.800000 15.580000 0.960000
v 0.800000 15.580000 -0.720000
v 0.800000 16.740000 0.960000
v 0.800000 16.740000 -0.720000
v -0.400000 0.979999 0.960000
v -0.400000 0.979999 -0.720000
v 0.800000 0.979999 0.960000
v 0.800000 0.979999 -0.720000
v -8.800000 -0.020001 0.960000
v -8.800000 -0.020001 -0.720000
v -7.600000 -0.020001 0.960000
v -7.600000 -0.020001 -0.720000
v -0.400000 -0.020001 0.960000
v -0.400000 -0.020001 -0.720000
v 0.800000 -0.020001 0.960000
v 0.800000 -0.020001 -0.720000
v -18.799999 0.979999 0.960000
v -18.799999 0.979999 -0.720000
v -18.799999 -0.020001 0.960000
v -18.799999 -0.020001 -0.720000
v 19.799999 0.979999 0.960000
v 19.799999 0.979999 -0.720000
v 19.799999 -0.020001 0.960000
v 19.799999 -0.020001 -0.720000
v -19.799999 0.979999 0.960000
v -19.799999 0.979999 -0.720000
v -19.799999 -0.020001 0.960000
v -19.799999 -0.020001 -0.720000
v -18.799999 0.979999 37.959995
v -18.799999 -0.020001 37.959995
v -19.799999 0.979999 37.959995
v -19.799999 -0.020001 37.959995
vt 0.6241 0.8683
vt 0.6149 0.8683
vt 0.6149 0.8224
vt 0.6241 0.8224
vt 0.6746 0.9141
vt 0.6701 0.9141
vt 0.6701 0.8683
vt 0.6746 0.8683
vt 0.6333 0.8683
vt 0.6241 0.8683
vt 0.6241 0.8224
vt 0.6333 0.8224
vt 0.6700 0.9141
vt 0.6654 0.9141
vt 0.6654 0.8683
vt 0.6700 0.8683
vt 0.6654 0.8683
vt 0.6700 0.8683
vt 0.6472 0.8502
vt 0.6518 0.8502
vt 0.6518 0.8548
vt 0.6472 0.8548
vt 0.6426 0.8548
vt 0.6426 0.8456
vt 0.6471 0.8456
vt 0.6471 0.8548
vt 0.6518 0.8456
vt 0.6518 0.8502
vt 0.6472 0.8502
vt 0.6472 0.8456
vt 0.6057 0.8821
vt 0.6057 0.8775
vt 0.6332 0.8775
vt 0.6332 0.8821
vt 0.6517 0.8316
vt 0.6426 0.8316
vt 0.6426 0.8271
vt 0.6517 0.8271
vt 0.6517 0.8409
vt 0.6426 0.8409
vt 0.6426 0.8363
vt 0.6517 0.8363
vt 0.6057 0.8775
vt 0.6057 0.8683
vt 0.6332 0.8683
vt 0.6332 0.8775
vt 0.6333 0.8821
vt 0.6333 0.8775
vt 0.6607 0.8775
vt 0.6607 0.8821
vt 0.6333 0.8775
vt 0.6333 0.8683
vt 0.6607 0.8683
vt 0.6607 0.8775
vt 0.6426 0.8317
vt 0.6517 0.8317
vt 0.6426 0.8640
vt 0.6426 0.8594
vt 0.6471 0.8594
vt 0.6471 0.8640
vt 0.6425 0.8683
vt 0.6334 0.8683
vt 0.6334 0.8224
vt 0.6425 0.8224
vt 0.6426 0.8594
vt 0.6426 0.8548
vt 0.6471 0.8548
vt 0.6471 0.8594
vt 0.6334 0.8224
vt 0.6425 0.8224
vt 0.6793 0.9141
vt 0.6747 0.9141
vt 0.6747 0.8683
vt 0.6793 0.8683
vt 0.6149 0.8683
vt 0.6057 0.8683
vt 0.6057 0.8224
vt 0.6149 0.8224
vt 0.6654 0.9141
vt 0.6608 0.9141
vt 0.6608 0.8683
vt 0.6654 0.8683
vt 0.6426 0.8410
vt 0.6517 0.8410
vt 0.6517 0.8455
vt 0.6426 0.8455
vt 0.6241 0.8224
vt 0.6333 0.8224
vt 0.6654 0.8683
vt 0.6654 0.8683
vt 0.6701 0.8683
vt 0.6746 0.8683
vt 0.6426 0.8224
vt 0.6517 0.8224
vt 0.6517 0.8270
vt 0.6426 0.8270
vt 0.6608 0.8683
vt 0.6654 0.8683
vt 0.6057 0.8224
vt 0.6149 0.8224
vt 0.6747 0.8683
vt 0.6793 0.8683
vt 0.6426 0.8410
vt 0.6426 0.8410
vt 0.6426 0.8410
vt 0.6426 0.8410
vt 0.6517 0.8410
vt 0.6746 0.8683
vt 0.6746 0.8683
vt 0.6149 0.8224
vt 0.6241 0.8224
vt 0.6334 0.8224
vt 0.6425 0.8224
vt 0.6747 0.8683
vt 0.6747 0.8683
vt 0.6517 0.8270
vt 0.6426 0.8270
vt 0.6654 0.8683
vt 0.6654 0.8683
vt 0.6241 0.8224
vt 0.6149 0.8224
vt 0.6149 0.8224
vt 0.6241 0.8224
vt 0.6746 0.8683
vt 0.6746 0.8683
vt 0.6517 0.8410
vt 0.6654 0.8683
vt 0.6654 0.8683
vt 0.6654 0.8683
vt 0.6654 0.8683
vt 0.6241 0.8224
vt 0.6241 0.8224
vt 0.6241 0.8224
vn -1.0000 0.0000 0.0000
vn 0.0000 0.0000 -1.0000
vn 1.0000 0.0000 0.0000
vn 0.0000 0.0000 1.0000
vn 0.0000 1.0000 0.0000
vn 0.0000 -1.0000 0.0000
usemtl None_door.jpg
s off
f 90/245/31 92/246/31 91/247/31 89/248/31
f 92/249/32 96/250/32 95/251/32 91/252/32
f 96/253/33 94/254/33 93/255/33 95/256/33
f 94/257/34 90/258/34 89/259/34 93/260/34
f 93/260/34 89/259/34 113/261/34 115/262/34
f 90/263/34 94/264/34 99/265/34 97/266/34
f 99/267/35 100/268/35 98/269/35 97/270/35
f 96/271/32 92/272/32 98/273/32 100/274/32
f 96/275/32 100/276/32 104/277/32 102/278/32
f 92/279/31 90/280/31 97/281/31 98/282/31
f 104/283/35 103/284/35 107/285/35 108/286/35
f 94/287/36 96/288/36 102/289/36 101/290/36
f 99/291/34 94/292/34 101/293/34 103/294/34
f 100/295/35 99/296/35 103/297/35 104/298/35
f 105/299/33 106/300/33 108/286/33 107/285/33
f 103/301/34 101/302/34 105/303/34 107/304/34
f 106/305/33 105/306/33 111/307/33 112/308/33
f 102/309/32 104/310/32 108/311/32 106/312/32
f 112/308/35 111/307/35 125/313/35 126/314/35
f 102/315/32 106/316/32 112/317/32 110/318/32
f 101/319/31 102/320/31 110/321/31 109/322/31
f 105/323/34 101/324/34 109/325/34 111/326/34
f 113/327/36 114/328/36 116/329/36 115/330/36
f 95/256/33 93/255/33 115/331/33 116/332/33
f 113/261/34 89/259/34 121/333/34 123/334/34
f 91/252/32 95/251/32 116/335/32 114/336/32
f 117/337/36 118/338/36 120/339/36 119/340/36
f 111/326/34 109/325/34 117/341/34 119/342/34
f 109/322/31 110/321/31 118/343/31 117/344/31
f 110/318/32 112/317/32 120/345/32 118/346/32
f 131/347/36 123/348/36 134/349/36 136/350/36
f 114/328/36 113/327/36 123/348/36 124/351/36
f 91/252/32 114/336/32 124/352/32 122/353/32
f 89/248/35 91/247/35 122/354/35 121/355/35
f 126/314/33 125/313/33 127/356/33 128/357/33
f 120/345/32 112/317/32 126/358/32 128/359/32
f 119/340/36 120/339/36 128/360/36 127/361/36
f 111/326/34 119/342/34 127/362/34 125/363/34
f 129/364/31 130/365/31 132/366/31 131/367/31
f 121/355/35 122/354/35 130/365/35 129/364/35
f 122/353/32 124/352/32 132/368/32 130/369/32
f 124/351/36 123/348/36 131/347/36 132/370/36
f 134/371/34 133/372/34 135/373/34 136/374/34
f 123/334/33 121/333/33 133/372/33 134/371/33
f 121/355/35 129/364/35 135/375/35 133/376/35
f 129/364/31 131/367/31 136/377/31 135/375/31
o Wall1_Cube.007
v -20.000000 22.000000 0.000000
v -20.000000 22.000000 -2.000000
v -20.000000 0.000000 -2.000000
v -20.000000 0.000000 0.000000
v 20.000000 22.000000 0.000000
v -7.600000 0.000000 0.000000
v -7.600000 15.580002 0.000000
v -0.400000 15.580002 0.000000
v -0.400000 0.000000 0.000000
v 20.000000 0.000000 0.000000
v 20.000000 22.000000 -2.000000
v 20.000000 0.000000 -2.000000
v -0.400000 0.000000 -2.000000
v -0.400000 15.580002 -2.000000
v -7.600000 15.580002 -2.000000
v -7.600000 0.000000 -2.000000
vt 0.0000 0.0000
vt 1.0000 0.0000
vt 1.0000 1.0000
vt 0.0000 1.0000
vt 0.0000 0.0000
vt 1.0000 0.0000
vt 0.5100 0.2918
vt 1.0000 0.0000
vt 1.0000 1.0000
vt 0.0000 1.0000
vt 0.0000 0.0000
vt 1.0000 1.0000
vt 0.4900 1.0000
vt 0.4900 0.2918
vt 0.3100 0.2918
vt 0.3100 1.0000
vt 0.0000 1.0000
vt 0.0000 0.0000
vt 1.0000 0.0000
vt 1.0000 0.3100
vt 0.0000 0.3100
vt 0.0000 0.0000
vt 1.0000 0.0000
vt 1.0000 1.0000
vt 0.0000 1.0000
vt 1.0000 0.4900
vt 0.0000 1.0000
vt 0.0000 0.4900
vt 1.0000 1.0000
vt 0.6900 0.2918
vt 0.6900 1.0000
vt 0.5100 1.0000
vt 0.5426 0.2854
vt 0.5426 0.2836
vt 0.5426 0.2836
vt 0.5426 0.2854
vt 0.2585 0.4642
vt 0.2589 0.4642
vt 0.2589 0.4642
vt 0.2585 0.4642
vt 0.5150 0.2854
vt 0.5150 0.2836
vt 0.5150 0.2836
vt 0.5150 0.2854
vn -1.0000 0.0000 0.0000
vn 0.0000 0.0000 1.0000
vn 0.0000 1.0000 0.0000
vn 0.0000 0.0000 -1.0000
vn 0.0000 -1.0000 0.0000
vn 1.0000 0.0000 0.0000
usemtl None_wall.jpg.001
s off
f 137/378/37 138/379/37 139/380/37 140/381/37
f 141/382/38 137/383/38 144/384/38
f 141/382/39 147/385/39 138/386/39 137/387/39
f 138/388/40 147/385/40 148/389/40 149/390/40 150/391/40 151/392/40 152/393/40 139/394/40
f 140/395/41 139/396/41 152/397/41 142/398/41
f 147/399/42 141/400/42 146/401/42 148/402/42
f 149/403/41 148/389/41 146/404/41 145/405/41
f 137/383/38 140/406/38 143/407/38
f 140/406/38 142/408/38 143/407/38
f 145/409/38 146/404/38 144/384/38
f 137/383/38 143/407/38 144/384/38
f 144/384/38 146/404/38 141/382/38
usemtl None_door.jpg
f 143/410/42 142/411/42 152/412/42 151/413/42
f 144/414/41 143/415/41 151/416/41 150/417/41
f 150/418/37 149/419/37 145/420/37 144/421/37
